<?xml version="1.0" encoding="UTF-8"?>
<svg version="1.1" xmlns="http://www.w3.org/2000/svg" width="195" height="45">
<path d="M0 0 C64.35 0 128.7 0 195 0 C195 14.85 195 29.7 195 45 C130.65 45 66.3 45 0 45 C0 30.15 0 15.3 0 0 Z " fill="#010101" transform="translate(0,0)"/>
<path d="M0 0 C2.97 0 5.94 0 9 0 C9.33 0.66 9.66 1.32 10 2 C7.36 2 4.72 2 2 2 C3.00836062 3.23267348 3.00836062 3.23267348 5.06640625 3.09765625 C5.89011719 3.08605469 6.71382812 3.07445312 7.5625 3.0625 C8.38878906 3.05347656 9.21507812 3.04445313 10.06640625 3.03515625 C11.02353516 3.01775391 11.02353516 3.01775391 12 3 C12.33 3.66 12.66 4.32 13 5 C10.36 5 7.72 5 5 5 C5 6.32 5 7.64 5 9 C6.65 9 8.3 9 10 9 C9.67 10.65 9.34 12.3 9 14 C7.68 14 6.36 14 5 14 C5.103125 14.928125 5.20625 15.85625 5.3125 16.8125 C5.209375 17.864375 5.10625 18.91625 5 20 C3.35 20.99 1.7 21.98 0 23 C0 15.41 0 7.82 0 0 Z " fill="#C9C9C8" transform="translate(36,11)"/>
<path d="M0 0 C-0.804375 0.61875 -1.60875 1.2375 -2.4375 1.875 C-5.03874519 3.74164041 -5.03874519 3.74164041 -6 6 C-6 6.99 -6 7.98 -6 9 C-11.2734375 12.22265625 -11.2734375 12.22265625 -13 13 C-13.66 12.67 -14.32 12.34 -15 12 C-14.67 11.34 -14.34 10.68 -14 10 C-13.95875 9.05125 -13.9175 8.1025 -13.875 7.125 C-13 4 -13 4 -9.8125 1.625 C-6.47241623 -0.04504189 -3.75012393 -0.36586575 0 0 Z " fill="#4B4B4B" transform="translate(154,15)"/>
<path d="M0 0 C3.29714793 0.32971479 4.6226839 0.6226839 7 3 C7.99 2.67 8.98 2.34 10 2 C10.66 2.33 11.32 2.66 12 3 C12 4.32 12 5.64 12 7 C12.99 7.66 13.98 8.32 15 9 C13.35 9 11.7 9 10 9 C9.67 8.34 9.34 7.68 9 7 C8.01 7 7.02 7 6 7 C6 7.66 6 8.32 6 9 C5.34 9 4.68 9 4 9 C4 8.34 4 7.68 4 7 C2.68 7.33 1.36 7.66 0 8 C-0.66 6.02 -1.32 4.04 -2 2 C-1.34 1.34 -0.68 0.68 0 0 Z " fill="#2B2B2B" transform="translate(124,20)"/>
<path d="M0 0 C0.66 0.33 1.32 0.66 2 1 C0.68 2.65 -0.64 4.3 -2 6 C-0.05000871 5.80528889 -0.05000871 5.80528889 2 5 C3.1500831 3.03327085 3.1500831 3.03327085 4 1 C4.66 0.67 5.32 0.34 6 0 C4.60484422 2.98482847 2.97667625 5.55357889 1 8.1875 C0.2265625 9.22970703 0.2265625 9.22970703 -0.5625 10.29296875 C-2 12 -2 12 -4 13 C-4.33 12.01 -4.66 11.02 -5 10 C-4.01 9.67 -3.02 9.34 -2 9 C-1.67 8.34 -1.34 7.68 -1 7 C-1.99 7 -2.98 7 -4 7 C-4.33 6.01 -4.66 5.02 -5 4 C-3.35 2.68 -1.7 1.36 0 0 Z " fill="#929292" transform="translate(97,22)"/>
<path d="M0 0 C0.66 0.33 1.32 0.66 2 1 C1.67 2.65 1.34 4.3 1 6 C0.38125 6.103125 -0.2375 6.20625 -0.875 6.3125 C-3.36526484 6.87525373 -3.36526484 6.87525373 -5 10 C-5.66 9.67 -6.32 9.34 -7 9 C-6.67 8.34 -6.34 7.68 -6 7 C-6.66 6.67 -7.32 6.34 -8 6 C-5 4 -5 4 -2 4 C-1.34 2.68 -0.68 1.36 0 0 Z " fill="#818181" transform="translate(86,18)"/>
<path d="M0 0 C2.0625 0.4375 2.0625 0.4375 4 1 C2.35 2.65 0.7 4.3 -1 6 C-1 5.34 -1 4.68 -1 4 C-2.98 4.33 -4.96 4.66 -7 5 C-7 4.34 -7 3.68 -7 3 C-8.65 3 -10.3 3 -12 3 C-12 2.67 -12 2.34 -12 2 C-11.21753906 1.93941406 -10.43507813 1.87882813 -9.62890625 1.81640625 C-8.61699219 1.73261719 -7.60507813 1.64882812 -6.5625 1.5625 C-5.55316406 1.48128906 -4.54382813 1.40007813 -3.50390625 1.31640625 C-1.06359221 1.26788532 -1.06359221 1.26788532 0 0 Z " fill="#848484" transform="translate(95,13)"/>
<path d="M0 0 C0.99 0.33 1.98 0.66 3 1 C3 2.32 3 3.64 3 5 C3.99 5.66 4.98 6.32 6 7 C4.35 7 2.7 7 1 7 C0.67 6.34 0.34 5.68 0 5 C-0.99 5 -1.98 5 -3 5 C-3 5.66 -3 6.32 -3 7 C-3.66 6.67 -4.32 6.34 -5 6 C-3.35 4.02 -1.7 2.04 0 0 Z " fill="#878787" transform="translate(133,22)"/>
<path d="M0 0 C-0.70125 0.556875 -1.4025 1.11375 -2.125 1.6875 C-5.11344261 4.09124732 -8.05940238 6.53810432 -11 9 C-10 7 -9 5 -8 3 C-8.66 2.67 -9.32 2.34 -10 2 C-6.5980513 -0.09350689 -3.94727588 -0.17942163 0 0 Z " fill="#8A8A8A" transform="translate(154,15)"/>
<path d="M0 0 C4.75 0.75 4.75 0.75 7 3 C6.01 4.485 6.01 4.485 5 6 C4.67 4.68 4.34 3.36 4 2 C2.02 2.66 0.04 3.32 -2 4 C-1.34 2.68 -0.68 1.36 0 0 Z " fill="#494949" transform="translate(124,20)"/>
<path d="M0 0 C2.31 0 4.62 0 7 0 C7 0.66 7 1.32 7 2 C2.84732824 5.11450382 2.84732824 5.11450382 -0.3125 4.6875 C-0.869375 4.460625 -1.42625 4.23375 -2 4 C-0.68 3.34 0.64 2.68 2 2 C1.34 1.34 0.68 0.68 0 0 Z " fill="#393939" transform="translate(81,16)"/>
<path d="M0 0 C-1 3 -1 3 -4.0625 4.6875 C-5.031875 5.120625 -6.00125 5.55375 -7 6 C-4.84615385 0 -4.84615385 0 0 0 Z " fill="#797979" transform="translate(111,22)"/>
<path d="M0 0 C0 0.99 0 1.98 0 3 C0.33 3.99 0.66 4.98 1 6 C-0.65 6.33 -2.3 6.66 -4 7 C-2.92598892 4.08482708 -2.22189824 2.22189824 0 0 Z " fill="#717171" transform="translate(91,22)"/>
<path d="M0 0 C0.66 0.33 1.32 0.66 2 1 C0.35 2.98 -1.3 4.96 -3 7 C-3.66 6.01 -4.32 5.02 -5 4 C-3.35 2.68 -1.7 1.36 0 0 Z " fill="#6A6A6A" transform="translate(138,15)"/>
<path d="M0 0 C2.0625 0.4375 2.0625 0.4375 4 1 C3.34 1 2.68 1 2 1 C1.731875 1.639375 1.46375 2.27875 1.1875 2.9375 C0 5 0 5 -3 6 C-1.125 1.125 -1.125 1.125 0 0 Z " fill="#2D2D2D" transform="translate(101,25)"/>
</svg>
