<?xml version="1.0" encoding="UTF-8"?>
<svg version="1.1" xmlns="http://www.w3.org/2000/svg" width="195" height="45">
<path d="M0 0 C64.35 0 128.7 0 195 0 C195 14.85 195 29.7 195 45 C130.65 45 66.3 45 0 45 C0 30.15 0 15.3 0 0 Z " fill="#FDFDFD" transform="translate(0,0)"/>
<path d="M0 0 C4.62 0 9.24 0 14 0 C14.33 0.99 14.66 1.98 15 3 C11.04 3 7.08 3 3 3 C3 6.3 3 9.6 3 13 C3.66 13 4.32 13 5 13 C5 10.36 5 7.72 5 5 C9.29 5 13.58 5 18 5 C18.33 5.66 18.66 6.32 19 7 C15.04 7 11.08 7 7 7 C7 8.98 7 10.96 7 13 C9.97 13 12.94 13 16 13 C15.67 13.99 15.34 14.98 15 16 C12.36 16 9.72 16 7 16 C7 16.66 7 17.32 7 18 C9.31 18 11.62 18 14 18 C14 18.66 14 19.32 14 20 C11.69 20 9.38 20 7 20 C7 22.97 7 25.94 7 29 C6.01 29.33 5.02 29.66 4 30 C2.9805881 30.98020375 1.97753644 31.97803008 1 33 C0.67 33 0.34 33 0 33 C0 22.11 0 11.22 0 0 Z " fill="#333232" transform="translate(31,6)"/>
<path d="M0 0 C-0.99 0.66 -1.98 1.32 -3 2 C-3.4125 3.11375 -3.825 4.2275 -4.25 5.375 C-5.45866676 8.4645332 -6.70578246 9.80844469 -9.5625 11.5 C-10.696875 11.995 -11.83125 12.49 -13 13 C-13.66 12.67 -14.32 12.34 -15 12 C-14.67 11.34 -14.34 10.68 -14 10 C-13.95875 9.05125 -13.9175 8.1025 -13.875 7.125 C-13 4 -13 4 -9.8125 1.625 C-6.47241623 -0.04504189 -3.75012393 -0.36586575 0 0 Z " fill="#B1B1B1" transform="translate(154,15)"/>
<path d="M0 0 C0.33 0.66 0.66 1.32 1 2 C3.64 2 6.28 2 9 2 C9 2.66 9 3.32 9 4 C6.69 4 4.38 4 2 4 C2 6.97 2 9.94 2 13 C1.01 13.33 0.02 13.66 -1 14 C-1.33 14.66 -1.66 15.32 -2 16 C-2.66 16 -3.32 16 -4 16 C-4 11.38 -4 6.76 -4 2 C-2.68 2 -1.36 2 0 2 C0 1.34 0 0.68 0 0 Z " fill="#232323" transform="translate(36,22)"/>
<path d="M0 0 C3.29714793 0.32971479 4.6226839 0.6226839 7 3 C7.99 2.67 8.98 2.34 10 2 C10.66 2.33 11.32 2.66 12 3 C12 4.32 12 5.64 12 7 C12.99 7.66 13.98 8.32 15 9 C13.35 9 11.7 9 10 9 C9.67 8.34 9.34 7.68 9 7 C8.01 7 7.02 7 6 7 C6 7.66 6 8.32 6 9 C5.34 9 4.68 9 4 9 C4 8.34 4 7.68 4 7 C2.68 7.33 1.36 7.66 0 8 C-0.66 6.02 -1.32 4.04 -2 2 C-1.34 1.34 -0.68 0.68 0 0 Z " fill="#D8D8D8" transform="translate(124,20)"/>
<path d="M0 0 C4.29 0 8.58 0 13 0 C13.33 0.66 13.66 1.32 14 2 C10.04 2 6.08 2 2 2 C2.33 5.96 2.66 9.92 3 14 C2.01 14 1.02 14 0 14 C0 9.38 0 4.76 0 0 Z " fill="#1A1A1A" transform="translate(32,7)"/>
<path d="M0 0 C0.33 0.66 0.66 1.32 1 2 C1.66 2.33 2.32 2.66 3 3 C-1.29 3 -5.58 3 -10 3 C-10 5.64 -10 8.28 -10 11 C-10.66 11 -11.32 11 -12 11 C-12 7.7 -12 4.4 -12 1 C-6.06 0.505 -6.06 0.505 0 0 Z " fill="#D8D8D8" transform="translate(46,8)"/>
<path d="M0 0 C0 3.76339198 -1.06101287 4.72543245 -3.375 7.625 C-4.31472656 8.81996094 -4.31472656 8.81996094 -5.2734375 10.0390625 C-7 12 -7 12 -9 13 C-9.33 12.01 -9.66 11.02 -10 10 C-9.01 9.67 -8.02 9.34 -7 9 C-6.67 8.34 -6.34 7.68 -6 7 C-6.99 7 -7.98 7 -9 7 C-8.67 6.01 -8.34 5.02 -8 4 C-7.67 4.66 -7.34 5.32 -7 6 C-5.05000871 5.80528889 -5.05000871 5.80528889 -3 5 C-1.77472052 3.04978917 -1.77472052 3.04978917 -1 1 C-0.67 0.67 -0.34 0.34 0 0 Z " fill="#737373" transform="translate(102,22)"/>
<path d="M0 0 C0.66 0.33 1.32 0.66 2 1 C1.67 2.65 1.34 4.3 1 6 C0.38125 6.103125 -0.2375 6.20625 -0.875 6.3125 C-3.36526484 6.87525373 -3.36526484 6.87525373 -5 10 C-5.66 9.67 -6.32 9.34 -7 9 C-6.67 8.34 -6.34 7.68 -6 7 C-6.66 6.67 -7.32 6.34 -8 6 C-5 4 -5 4 -2 4 C-1.34 2.68 -0.68 1.36 0 0 Z " fill="#858585" transform="translate(86,18)"/>
<path d="M0 0 C2.0625 0.4375 2.0625 0.4375 4 1 C2.35 2.65 0.7 4.3 -1 6 C-1 5.34 -1 4.68 -1 4 C-2.98 4.33 -4.96 4.66 -7 5 C-7 4.34 -7 3.68 -7 3 C-8.65 3 -10.3 3 -12 3 C-12 2.67 -12 2.34 -12 2 C-11.21753906 1.93941406 -10.43507813 1.87882813 -9.62890625 1.81640625 C-8.61699219 1.73261719 -7.60507813 1.64882812 -6.5625 1.5625 C-5.55316406 1.48128906 -4.54382813 1.40007813 -3.50390625 1.31640625 C-1.06359221 1.26788532 -1.06359221 1.26788532 0 0 Z " fill="#818181" transform="translate(95,13)"/>
<path d="M0 0 C-0.99 0.66 -1.98 1.32 -3 2 C-4.19232613 4.05003955 -4.19232613 4.05003955 -5 6 C-5.66 6 -6.32 6 -7 6 C-8.36161311 6.96113866 -9.69855198 7.95884159 -11 9 C-10 7 -9 5 -8 3 C-8.66 2.67 -9.32 2.34 -10 2 C-6.5980513 -0.09350689 -3.94727588 -0.17942163 0 0 Z " fill="#858585" transform="translate(154,15)"/>
<path d="M0 0 C0.99 0.33 1.98 0.66 3 1 C3 2.32 3 3.64 3 5 C3.99 5.66 4.98 6.32 6 7 C4.35 7 2.7 7 1 7 C0.67 6.34 0.34 5.68 0 5 C-0.99 5 -1.98 5 -3 5 C-3 5.66 -3 6.32 -3 7 C-3.66 6.67 -4.32 6.34 -5 6 C-3.35 4.02 -1.7 2.04 0 0 Z " fill="#7E7E7E" transform="translate(133,22)"/>
<path d="M0 0 C-1.12005631 3.36016893 -2.37211797 4.69064913 -5 7 C-5.66 7 -6.32 7 -7 7 C-6.6875 4.625 -6.6875 4.625 -6 2 C-3 0 -3 0 0 0 Z " fill="#989898" transform="translate(111,22)"/>
<path d="M0 0 C4.75 0.75 4.75 0.75 7 3 C6.01 4.485 6.01 4.485 5 6 C4.67 4.68 4.34 3.36 4 2 C2.02 2.66 0.04 3.32 -2 4 C-1.34 2.68 -0.68 1.36 0 0 Z " fill="#BDBDBD" transform="translate(124,20)"/>
<path d="M0 0 C2.31 0 4.62 0 7 0 C7 0.66 7 1.32 7 2 C2.84732824 5.11450382 2.84732824 5.11450382 -0.3125 4.6875 C-0.869375 4.460625 -1.42625 4.23375 -2 4 C-0.68 3.34 0.64 2.68 2 2 C1.34 1.34 0.68 0.68 0 0 Z " fill="#CBCBCB" transform="translate(81,16)"/>
<path d="M0 0 C0.33 1.32 0.66 2.64 1 4 C-2.75 7 -2.75 7 -5 7 C-3.70700306 4.11562221 -2.34058637 2.12780579 0 0 Z " fill="#D6D6D6" transform="translate(148,19)"/>
<path d="M0 0 C0.66 0.33 1.32 0.66 2 1 C0.35 2.98 -1.3 4.96 -3 7 C-3.66 6.01 -4.32 5.02 -5 4 C-3.35 2.68 -1.7 1.36 0 0 Z " fill="#A0A0A0" transform="translate(138,15)"/>
<path d="M0 0 C0 0.99 0 1.98 0 3 C0.33 3.99 0.66 4.98 1 6 C-0.65 6.33 -2.3 6.66 -4 7 C-2.92598892 4.08482708 -2.22189824 2.22189824 0 0 Z " fill="#949494" transform="translate(91,22)"/>
<path d="M0 0 C2.0625 0.4375 2.0625 0.4375 4 1 C3.34 1 2.68 1 2 1 C1.731875 1.639375 1.46375 2.27875 1.1875 2.9375 C0 5 0 5 -3 6 C-1.125 1.125 -1.125 1.125 0 0 Z " fill="#D7D7D7" transform="translate(101,25)"/>
</svg>
