<?xml version="1.0" encoding="UTF-8"?>
<svg version="1.1" xmlns="http://www.w3.org/2000/svg" width="800" height="800">
<path d="M0 0 C264 0 528 0 800 0 C800 264 800 528 800 800 C536 800 272 800 0 800 C0 536 0 272 0 0 Z " fill="#FEFEFE" transform="translate(0,0)"/>
<path d="M0 0 C37.5271875 -0.8353125 37.5271875 -0.8353125 75.8125 -1.6875 C83.65878174 -1.93330811 91.50506348 -2.17911621 99.58911133 -2.43237305 C109.30603027 -2.55432129 109.30603027 -2.55432129 113.88114929 -2.57698059 C117.02455648 -2.60178104 120.15518281 -2.70119763 123.29508972 -2.85054016 C138.15642423 -3.5269994 151.50507078 -4.05264977 163.27182007 6.15536499 C170.1637488 12.47365784 176.41790395 19.50217136 182 27 C182 27.33 182 27.66 182 28 C131.18 28 80.36 28 28 28 C28 68.59 28 109.18 28 151 C35.59 151 43.18 151 51 151 C51 118 51 85 51 51 C88.99232692 49.87151504 88.99232692 49.87151504 105.0859375 49.6328125 C116.14015203 49.46752389 127.18833398 49.27480645 138.23730469 48.88769531 C146.29038043 48.60568643 154.33850482 48.42732411 162.39638114 48.36552215 C166.65350476 48.32945367 170.89648907 48.24699511 175.14899445 48.03955841 C190.28319958 47.3292404 203.56820521 46.97963709 215.51452637 57.38464355 C222.66315058 63.95461981 229.16644096 71.24171181 235 79 C235 79.33 235 79.66 235 80 C183.52 80 132.04 80 79 80 C79 103.43 79 126.86 79 151 C114.97 151 150.94 151 188 151 C186.61987401 155.14037798 185.19657184 159.18593523 183.625 163.25 C183.22539062 164.28640625 182.82578125 165.3228125 182.4140625 166.390625 C180.63311947 170.9364575 178.8132216 175.466946 177 180 C144.99 180 112.98 180 80 180 C80 187.59 80 195.18 80 203 C108.71 203 137.42 203 167 203 C166.30406965 206.47965174 165.5957066 209.42595823 164.44140625 212.72265625 C164.13783203 213.59083984 163.83425781 214.45902344 163.52148438 215.35351562 C163.20501953 216.24748047 162.88855469 217.14144531 162.5625 218.0625 C162.09360352 219.40924805 162.09360352 219.40924805 161.61523438 220.78320312 C160.24473309 224.68029452 158.85388296 228.29223408 157 232 C131.59 232 106.18 232 80 232 C80.26683594 239.20070313 80.53367187 246.40140625 80.80859375 253.8203125 C80.92624111 258.40542928 81.03694155 262.98866527 81.12304688 267.57421875 C81.26016292 274.84169575 81.42158241 282.10246058 81.73510742 289.36474609 C83.44365735 329.95494652 83.44365735 329.95494652 77.73272705 337.56237793 C72.45617911 342.62161114 66.58151519 345.38291747 59.5426178 347.19747925 C56.83818369 348.05107372 55.21055831 349.26511618 53 351 C52.34 351 51.68 351 51 351 C51 311.73 51 272.46 51 232 C43.41 232 35.82 232 28 232 C28.04663284 233.64989426 28.09326569 235.29978851 28.14131165 236.99967957 C28.56776368 252.57915348 28.88340961 268.15680702 29.08805561 283.74073315 C29.1960735 291.7523195 29.34311294 299.75953327 29.58422852 307.76831055 C29.79445266 314.75438172 29.92921834 321.73728748 29.97585839 328.72643358 C30.00311069 332.42469845 30.06639189 336.1139154 30.22033119 339.8092556 C31.1182859 362.21086197 31.1182859 362.21086197 25.91915512 368.52850723 C20.2697378 373.34514847 13.89680489 376.38137303 7 379 C5.33282215 379.66538729 3.66600812 380.33168932 2 381 C2 381.66 2 382.32 2 383 C1.01 383 0.02 383 -1 383 C-1 323.6 -1 264.2 -1 203 C16.16 203 33.32 203 51 203 C51 195.41 51 187.82 51 180 C34.17 180 17.34 180 0 180 C0 120.6 0 61.2 0 0 Z " fill="#030303" transform="translate(320,211)"/>
</svg>
